<svg width="598" height="72" viewBox="0 0 598 72" fill="none" xmlns="http://www.w3.org/2000/svg">
<g clip-path="url(#clip0_74_2)">
<path d="M64.6602 51.5957L68.5765 60.0957C65.9656 61.8197 63.294 63.2832 60.5669 64.4915C57.851 65.6895 54.7257 66.6009 51.1856 67.2415C47.6455 67.8926 43.3199 68.2207 38.2199 68.2207C31.7592 68.2207 25.9899 67.0436 20.9176 64.6999C15.8397 62.3405 11.8681 58.9186 8.99177 54.429C6.11542 49.9447 4.67725 44.5124 4.67725 38.1374C4.67725 33.0957 5.57334 28.7207 7.37659 25.0124C9.1909 21.2936 11.6911 18.1947 14.8772 15.7207C18.0633 13.252 21.7252 11.403 25.8737 10.179C30.0334 8.96029 34.4807 8.3457 39.2156 8.3457C46.0414 8.3457 51.8107 9.48112 56.5179 11.7415C61.2363 13.9915 64.8262 17.0853 67.2932 21.0124C69.7713 24.9447 71.0103 29.403 71.0103 34.3874C71.0103 36.752 70.601 39.153 69.7934 41.5957C68.9803 44.0436 67.78 46.304 66.1869 48.3874C64.6049 50.4707 62.6689 52.153 60.3678 53.429C58.0778 54.7103 55.4393 55.3457 52.4468 55.3457C50.1457 55.3457 48.1876 55.002 46.5835 54.304C44.9904 53.5957 43.7348 52.7936 42.8221 51.8874C41.7877 52.9447 40.4989 53.7832 38.9501 54.4082C37.4013 55.0332 35.7529 55.3457 34.016 55.3457C31.3167 55.3457 28.8662 54.7832 26.6703 53.6582C24.4853 52.5228 22.7429 50.8874 21.4486 48.7624C20.1487 46.627 19.5015 44.0436 19.5015 41.0124C19.5015 36.3613 20.287 32.502 21.869 29.429C23.4454 26.3613 25.5197 24.0488 28.0863 22.4915C30.664 20.9395 33.4297 20.1582 36.3835 20.1582C37.2077 20.1582 38.242 20.2572 39.4811 20.4499C40.7312 20.6322 41.6107 20.8874 42.1141 21.2207L42.2689 19.8665L51.2963 20.5124C48.2429 18.7363 44.0888 17.8457 38.8394 17.8457C34.7075 17.8457 30.9959 18.5905 27.7102 20.0749C24.4356 21.5645 21.8358 23.8197 19.9219 26.8457C18.0191 29.8613 17.0677 33.6478 17.0677 38.1999C17.0677 42.9499 18.0191 46.8197 19.9219 49.804C21.8358 52.778 24.4466 54.9707 27.7544 56.3874C31.0733 57.804 34.7683 58.5124 38.8394 58.5124C44.133 58.5124 48.8679 57.9707 53.0442 56.8874C57.2315 55.804 61.1035 54.0436 64.6602 51.5957ZM54.2832 41.5957V41.8874C54.2832 42.2624 54.4049 42.5488 54.6594 42.7415C54.9083 42.9395 55.1351 43.0332 55.3453 43.0332C55.9039 43.0332 56.4737 42.2572 57.049 40.6999C57.6353 39.1322 57.934 37.0072 57.934 34.3249C57.934 30.9238 57.3698 28.0697 56.2524 25.7624C56.0588 27.3457 55.832 29.1113 55.5665 31.054C55.3121 33.002 55.0687 34.8978 54.8364 36.7415C54.6151 38.5905 54.427 40.2103 54.2832 41.5957ZM40.1449 33.2415C40.0398 33.0488 39.907 32.8978 39.7466 32.7832C39.5972 32.6582 39.3483 32.5957 38.9943 32.5957C38.1204 32.5957 37.3902 33.3665 36.8039 34.9082C36.2286 36.4395 35.941 38.3561 35.941 40.6582C35.941 41.0905 36.0627 41.5697 36.3171 42.0957C36.566 42.627 36.9698 42.8874 37.534 42.8874C38.5076 42.8874 39.0662 42.2415 39.2156 40.9499C39.376 39.6061 39.5309 38.2363 39.6802 36.8457C39.824 35.4603 39.9789 34.2572 40.1449 33.2415Z" fill="#5CE1E6"/>
<path d="M149.648 17.1997L143.231 19.2205C142.772 17.8195 142.147 16.2414 141.35 14.4914C140.565 12.7414 139.741 11.0539 138.872 9.42887L145.001 7.76221C145.958 9.30387 146.843 10.9289 147.656 12.6372C148.48 14.3351 149.144 15.856 149.648 17.1997ZM142.014 19.4289L135.598 21.4497C135.139 19.9653 134.541 18.3976 133.805 16.7414C133.064 15.0747 132.212 13.382 131.239 11.658L137.346 10.0122C138.319 11.6372 139.21 13.3039 140.023 15.0122C140.83 16.7101 141.494 18.1789 142.014 19.4289ZM143.917 27.8455H81.8763V8.28304H139.271L129.624 11.0122C130.846 13.2622 131.864 15.2935 132.677 17.0955C133.501 18.8872 134.248 20.7726 134.912 22.7414L143.917 20.0122V27.8455ZM147.28 49.5122H127.256C126.753 53.1112 126.106 56.2414 125.309 58.908C124.524 61.5643 123.672 63.908 122.743 65.9497C121.824 67.9914 120.84 69.9185 119.778 71.7414L91.4125 69.5122C93.1936 67.106 94.842 64.3403 96.3466 61.1997C97.8511 58.0643 99.1399 54.1685 100.219 49.5122H78.5132V29.9289H147.28V49.5122Z" fill="#5CE1E6"/>
<path d="M204.301 69.6584H179.631V49.1375C174.525 50.1532 169.276 50.9448 163.877 51.5125L156.531 30.1584C161.736 29.575 166.847 28.7729 171.864 27.7417C176.876 26.7157 181.666 25.5282 186.224 24.1792C190.782 22.8355 194.947 21.3979 198.725 19.8667C202.498 18.325 205.739 16.7625 208.438 15.1792L219.966 35.0542C215.541 37.8771 210.319 40.3667 204.301 42.5334V69.6584Z" fill="#5CE1E6"/>
<path d="M297.476 44.825L295.949 71.6792C290.285 71.6792 284.598 71.1896 278.89 70.2209C273.192 69.2625 267.921 67.898 263.07 66.1375C254.469 69.8302 243.494 71.6792 230.147 71.6792L228.62 44.825C235.18 44.7313 240.551 44.2417 244.728 43.3667C248.915 42.4813 252.206 41.1271 254.596 39.3042C256.985 37.4709 258.739 35.1167 259.862 32.2417H231.983V8.9917H290.971C290.971 15.9917 290.511 22.4084 289.599 28.2417C288.681 34.075 287.176 39.3407 285.085 44.0334C286.866 44.2834 288.791 44.4709 290.86 44.5959C292.923 44.7105 295.13 44.7834 297.476 44.825Z" fill="#5CE1E6"/>
<path d="M341.796 71.6789L337.835 53.8872C335.783 57.7778 333.023 61.2987 329.56 64.4497C326.109 67.5851 321.861 70.2101 316.816 72.3247L300.222 52.3872C304.099 51.0435 307.219 49.3976 309.581 47.4497C311.954 45.507 313.685 43.408 314.78 41.158C315.887 38.908 316.44 36.6789 316.44 34.4705H305.51V13.4497H317.568V8.19971H342.416V13.4497H370.604V50.7205C370.604 55.3351 370.062 59.0226 368.989 61.783C367.927 64.533 366.234 66.6268 363.922 68.0747C361.604 69.5174 358.623 70.4758 354.983 70.9497C351.338 71.4341 346.94 71.6789 341.796 71.6789ZM346.841 47.8455V34.4705H342.327C342.327 37.3039 342.067 40.1112 341.553 42.8872C341.049 45.6685 340.269 48.356 339.207 50.9497C341.802 50.856 343.721 50.5747 344.96 50.1164C346.21 49.658 346.841 48.9028 346.841 47.8455Z" fill="#5CE1E6"/>
<path d="M451.387 14.6167L444.971 16.6167C444.512 15.2313 443.887 13.6584 443.09 11.9084C442.305 10.1584 441.48 8.47087 440.612 6.84587L446.741 5.1792C447.698 6.72087 448.583 8.34587 449.396 10.0542C450.22 11.7521 450.884 13.2729 451.387 14.6167ZM443.754 16.8459L437.337 18.8459C436.878 17.3615 436.281 15.7938 435.545 14.1375C434.804 12.4865 433.952 10.799 432.979 9.07503L439.085 7.40837C440.059 9.04899 440.949 10.7209 441.763 12.4292C442.587 14.1271 443.25 15.5959 443.754 16.8459ZM404.635 71.825L375.673 66.2834C376.586 62.924 377.432 59.2417 378.217 55.2417C379.014 51.2313 379.711 47.1063 380.319 42.8667C380.939 38.6167 381.459 34.4188 381.89 30.2625C382.316 26.1115 382.642 22.1532 382.864 18.3875C383.096 14.6271 383.218 11.2313 383.218 8.20003L411.494 9.57503C411.494 12.5907 411.406 16.1063 411.229 20.1167C411.052 24.1167 410.77 28.3875 410.388 32.9292C410.001 37.4605 409.547 42.049 409.016 46.7C408.485 51.3563 407.849 55.825 407.114 60.1167C406.372 64.4084 405.548 68.3094 404.635 71.825ZM450.701 66.2834L421.739 71.825C420.82 68.3094 419.996 64.4084 419.261 60.1167C418.519 55.825 417.878 51.3563 417.336 46.7C416.805 42.049 416.346 37.4605 415.964 32.9292C415.593 28.3875 415.311 24.1167 415.123 20.1167C414.946 16.1063 414.858 12.5907 414.858 9.57503L431.518 8.78337C432.697 10.9396 433.676 12.8875 434.461 14.6375C435.258 16.3875 435.988 18.2313 436.651 20.1584L443.444 18.0542C443.71 21.8042 444.053 25.7782 444.484 29.9709C444.91 34.1688 445.424 38.4032 446.033 42.6792C446.652 46.9448 447.349 51.0907 448.135 55.1167C448.931 59.148 449.783 62.8667 450.701 66.2834Z" fill="#5CE1E6"/>
<path d="M485.11 43.0332H455.616V8.2832H485.11V43.0332ZM457.74 71.7415L455.461 45.7624C461.977 45.7624 467.398 45.7155 471.724 45.6165C476.061 45.5228 479.523 45.3353 482.123 45.054C484.717 44.7624 486.664 44.3822 487.964 43.9082C489.259 43.4238 490.116 42.8145 490.531 42.0749C490.94 41.3249 491.15 40.4238 491.15 39.3665V8.2832H520.71V44.4707C520.71 49.554 519.941 53.778 518.409 57.1374C516.888 60.502 514.548 63.1686 511.395 65.1374C508.237 67.0957 504.171 68.5384 499.204 69.4707C494.231 70.4134 488.307 71.0228 481.437 71.304C474.561 71.5957 466.663 71.7415 457.74 71.7415Z" fill="#5CE1E6"/>
<path d="M597.6 51.658H528.833V27.1372H597.6V51.658Z" fill="#5CE1E6"/>
<path d="M62.6099 47.8787L66.9686 57.3735L66.0172 58.009C63.3511 59.7798 60.6185 61.285 57.8141 62.5142C54.982 63.7642 51.735 64.7225 48.0788 65.3892C44.4501 66.0558 40.036 66.384 34.8531 66.384C28.16 66.384 22.175 65.1652 16.9091 62.7225C11.5878 60.2537 7.41159 56.6652 4.39142 51.9517C1.37678 47.2537 -0.133301 41.5871 -0.133301 34.9569C-0.133301 29.7225 0.812577 25.1548 2.70986 21.259C4.60715 17.3527 7.23458 14.0975 10.5922 11.4985C13.9221 8.9152 17.7499 6.98291 22.081 5.70687C26.3734 4.44645 30.9589 3.81104 35.8432 3.81104C42.9013 3.81104 48.8863 4.98812 53.8038 7.34229C58.7655 9.71729 62.5545 12.9829 65.1654 17.1392C67.7707 21.285 69.0706 25.9777 69.0706 31.2121C69.0706 33.7017 68.6447 36.2329 67.7818 38.811C66.9244 41.3944 65.6577 43.7902 63.9927 45.9933C62.2946 48.2381 60.2092 50.0402 57.7422 51.41C55.2254 52.8058 52.3324 53.5037 49.0689 53.5037C46.5631 53.5037 44.4169 53.1131 42.6192 52.3371C40.8492 51.5662 39.4386 50.6652 38.3987 49.6287L39.4386 48.7017L40.4952 49.6079C39.3391 50.811 37.8843 51.759 36.1419 52.4621C34.405 53.1548 32.5741 53.5037 30.6492 53.5037C27.7009 53.5037 25.0292 52.884 22.6231 51.6496C20.1948 50.3996 18.2643 48.5975 16.8316 46.2433C15.4045 43.8996 14.691 41.0975 14.691 37.8319C14.691 32.9725 15.5317 28.9152 17.2078 25.66C18.9004 22.3631 21.1517 19.8631 23.9506 18.1704C26.7606 16.4673 29.7807 15.6131 33.0166 15.6131C33.9072 15.6131 35.019 15.7173 36.341 15.9204C37.8069 16.1444 38.8855 16.4829 39.5714 16.936L38.7472 18.0454L37.3256 17.9048L37.6243 15.2329L48.029 15.9777L47.9183 17.3215L47.1661 18.4725C44.3395 16.8319 40.4398 16.009 35.4615 16.009C31.5508 16.009 28.0549 16.7121 24.9629 18.1079C21.9372 19.4777 19.542 21.5558 17.7775 24.3475C16.0019 27.1548 15.1114 30.7173 15.1114 35.0246C15.1114 39.5246 16.0019 43.1548 17.772 45.9152C19.531 48.6496 21.9316 50.6704 24.9739 51.9673C28.0992 53.3058 31.5951 53.9725 35.4615 53.9725C40.6334 53.9725 45.2467 53.4465 49.3012 52.3996C53.3115 51.3631 57.0286 49.6704 60.4526 47.3215L61.9018 46.3267L62.6099 47.8787ZM59.9824 48.9465L61.2934 48.41L62.1397 49.5037C58.4336 52.0454 54.4067 53.8787 50.059 55.0037C45.7556 56.1131 40.8879 56.6704 35.4615 56.6704C31.1802 56.6704 27.2861 55.9204 23.7902 54.4256C20.2058 52.8944 17.3848 50.5246 15.3216 47.311C13.2694 44.1235 12.2461 40.0298 12.2461 35.0246C12.2461 30.2225 13.2694 26.2017 15.316 22.9673C17.3737 19.7121 20.1726 17.2798 23.7238 15.6756C27.2031 14.0975 31.1194 13.311 35.4615 13.311C40.9819 13.311 45.3849 14.2642 48.6706 16.1756L47.8132 18.6704L38.7915 18.0194L38.9021 16.6756L40.3292 16.8162L39.9199 20.4621L37.9286 19.1496C37.5967 18.9308 36.9163 18.7433 35.8819 18.5819C34.7093 18.4048 33.7523 18.311 33.0166 18.311C30.345 18.311 27.8392 19.0194 25.4994 20.436C23.1541 21.8579 21.2457 23.9933 19.7854 26.8371C18.303 29.7225 17.5618 33.384 17.5618 37.8319C17.5618 40.6183 18.1481 42.9725 19.3208 44.8996C20.4824 46.811 22.0423 48.2746 24.0004 49.2798C25.9751 50.2954 28.1932 50.8058 30.6492 50.8058C32.1869 50.8058 33.6417 50.5298 35.0135 49.9777C36.3798 49.4308 37.4971 48.7017 38.3766 47.7902L39.4165 46.7173L40.4786 47.7746C41.2696 48.5558 42.3814 49.2642 43.8195 49.884C45.2356 50.4985 46.9835 50.8058 49.0689 50.8058C51.8125 50.8058 54.2187 50.2329 56.2874 49.0871C58.406 47.91 60.1982 46.3579 61.6585 44.4256C63.1464 42.4569 64.2804 40.3162 65.0492 38.0037C65.8181 35.6912 66.2053 33.4256 66.2053 31.2121C66.2053 26.4673 65.0382 22.2381 62.6984 18.5142C60.3696 14.8058 56.9733 11.884 52.5094 9.74854C47.9958 7.59228 42.4422 6.50895 35.8432 6.50895C31.2521 6.50895 26.9486 7.1027 22.9383 8.28499C18.9612 9.45687 15.4543 11.2225 12.412 13.5819C9.39738 15.9204 7.02992 18.8527 5.31517 22.384C3.59489 25.9256 2.73199 30.1131 2.73199 34.9569C2.73199 41.0871 4.10379 46.285 6.84185 50.5558C9.57991 54.8162 13.3524 58.0662 18.1758 60.3006C23.0434 62.5558 28.6025 63.686 34.8531 63.686C39.8535 63.686 44.0795 63.3735 47.5311 62.7381C50.9606 62.1131 53.9808 61.2225 56.6027 60.0715C59.2467 58.9048 61.8355 57.4829 64.3689 55.8006L65.193 56.9048L63.8766 57.4412L59.9824 48.9465ZM52.3324 38.41V38.6965C52.3324 38.7121 52.3324 38.7225 52.338 38.7277C52.3324 38.7173 52.3269 38.7017 52.3214 38.6808C52.2882 38.6131 52.2439 38.5558 52.1776 38.509C52.1997 38.5246 52.2218 38.535 52.2329 38.5454H52.2273C52.1554 38.5142 52.0725 38.4985 51.9729 38.4985C51.8014 38.4985 51.6576 38.535 51.547 38.6131C51.558 38.6027 51.5912 38.5662 51.641 38.4985C51.8567 38.2069 52.0891 37.7277 52.338 37.061C52.869 35.6444 53.1345 33.6756 53.1345 31.1392C53.1345 27.9308 52.6201 25.2642 51.5857 23.1392L52.8911 22.5767L54.3127 22.7433L53.6213 28.0298L52.8966 33.7121C52.6699 35.5506 52.4763 37.1652 52.3269 38.5506L50.8998 38.41H52.3324ZM49.4672 38.41V38.3423L49.4782 38.2694C49.6276 36.8735 49.8212 35.2485 50.0535 33.3892L50.7781 27.7017L52.0835 17.6808L54.191 22.0142C55.3969 24.4985 56.0053 27.5402 56.0053 31.1392C56.0053 33.9829 55.6845 36.2537 55.0428 37.9621C54.7054 38.8527 54.3569 39.5454 53.9974 40.0298C53.4277 40.811 52.7528 41.1965 51.9729 41.1965C51.4308 41.1965 50.9053 41.0037 50.3909 40.6131C49.7769 40.1548 49.4672 39.5142 49.4672 38.6965V38.41ZM35.4781 30.6652C35.4726 30.6444 35.4615 30.634 35.456 30.6235C35.456 30.6235 35.456 30.6287 35.4615 30.6287C35.5556 30.7017 35.6441 30.7485 35.727 30.7694C35.716 30.7642 35.6773 30.7642 35.6164 30.7642C35.6275 30.7642 35.6385 30.7642 35.6441 30.759C35.6054 30.7798 35.5556 30.8215 35.4892 30.8892C35.2513 31.1392 35.019 31.5715 34.7867 32.1756C34.2557 33.561 33.9902 35.3267 33.9902 37.4725C33.9902 37.7121 34.0787 38.0037 34.2446 38.3527C34.2612 38.3892 34.2723 38.41 34.2833 38.4256C34.2778 38.4152 34.2667 38.4048 34.2502 38.3944C34.2059 38.3683 34.1782 38.3579 34.1616 38.3579C34.1893 38.3579 34.2114 38.3527 34.228 38.3527H34.2225C34.2114 38.3579 34.2004 38.3631 34.2004 38.3683C34.2999 38.2485 34.3774 37.9985 34.4216 37.6131L34.8807 33.5194C35.0301 32.1131 35.1905 30.8944 35.3454 29.8683L36.7614 30.061L35.4781 30.6652ZM38.0447 29.4569L38.2439 29.8371L38.183 30.2537C38.0281 31.2433 37.8788 32.4256 37.7294 33.8006L37.2703 37.91C37.1597 38.8215 36.8776 39.5402 36.4185 40.0715C35.8543 40.7277 35.102 41.0558 34.1616 41.0558C33.5864 41.0558 33.072 40.91 32.6239 40.6183C32.2035 40.3475 31.8716 39.9621 31.6338 39.4725C31.2964 38.7642 31.1249 38.1027 31.1249 37.4725C31.1249 35.0142 31.4457 32.9412 32.0874 31.259C32.9005 29.1287 34.0787 28.0662 35.6164 28.0662C36.3189 28.0662 36.8776 28.2277 37.298 28.5558C37.6022 28.7954 37.8511 29.0975 38.0447 29.4569Z" fill="#5E17EB"/>
<path d="M146.74 15.2956L138.93 17.7435L138.498 16.431C138.05 15.082 137.442 13.5508 136.673 11.8424C135.893 10.1185 135.08 8.45182 134.228 6.84245L133.453 5.39453L142.287 3.00391L142.857 3.89974C143.853 5.47786 144.765 7.13932 145.606 8.88932C146.436 10.6237 147.111 12.181 147.636 13.5612L148.128 14.8581L146.74 15.2956ZM145.833 12.7331L146.286 14.0143L144.937 14.4674C144.439 13.1602 143.792 11.6706 142.99 9.9987C142.199 8.34245 141.33 6.76432 140.39 5.27474L141.623 4.58724L142.016 5.88411L135.904 7.54036L135.506 6.24349L136.789 5.63932C137.668 7.29557 138.509 9.00911 139.311 10.7852C140.119 12.582 140.76 14.1966 141.231 15.6289L139.864 16.0299L139.411 14.7487L145.833 12.7331ZM139.096 17.5247L131.263 19.9831L130.843 18.6341C130.4 17.1966 129.819 15.6758 129.106 14.0664C128.381 12.4518 127.546 10.7956 126.6 9.10286L125.776 7.63411L134.676 5.22266L135.229 6.16016C136.219 7.82162 137.126 9.52474 137.962 11.2643C138.786 12.9883 139.461 14.4883 139.981 15.7591L140.517 17.0768L139.096 17.5247ZM138.188 14.9622L138.642 16.2435L137.303 16.7279C136.806 15.5039 136.153 14.0508 135.345 12.3737C134.549 10.707 133.675 9.07162 132.729 7.47786L133.979 6.81641L134.377 8.11328L128.259 9.76953L127.867 8.47266L129.133 7.84245C130.118 9.60287 130.992 11.332 131.744 13.0247C132.508 14.7279 133.122 16.3477 133.597 17.8841L132.22 18.2591L131.766 16.9779L138.188 14.9622ZM140.55 26.0143H77.0604V3.73828H135.893L136.302 6.38411L126.672 9.11849L126.263 7.82682L127.535 7.21224C128.774 9.49349 129.808 11.5508 130.638 13.3737C131.468 15.2174 132.225 17.1393 132.9 19.1445L131.534 19.556L131.097 18.2695L141.983 14.9674V26.0143H140.55ZM140.55 23.3164V24.6654H139.118V16.8216H140.55L140.993 18.1029L130.605 21.2539L130.168 19.9622C129.521 18.0352 128.796 16.1966 127.999 14.4362C127.197 12.6654 126.191 10.6654 124.985 8.4362L124.205 6.9987L135.478 3.80078L135.893 5.09245V6.44141H78.493V5.09245H79.9257V24.6654H78.493V23.3164H140.55ZM143.913 47.6758H123.89V46.3268L125.311 46.5039C124.791 50.1654 124.127 53.3581 123.32 56.082C122.518 58.8008 121.644 61.2018 120.703 63.2956C119.763 65.3789 118.751 67.3529 117.656 69.2174L117.208 69.9779L85.4405 67.4831L86.8732 65.556C88.6045 63.2279 90.2031 60.53 91.6689 57.4674C93.1292 54.4102 94.3849 50.6029 95.4358 46.0404L96.8353 46.3268V47.6758H73.6973V25.3997H145.346V47.6758H143.913ZM143.913 44.9779V46.3268H142.481V26.7539H143.913V28.1029H75.1299V26.7539H76.5626V46.3268H75.1299V44.9779H98.6109L98.2347 46.6133C97.1451 51.3581 95.8286 55.3477 94.2798 58.5716C92.742 61.7956 91.0549 64.6393 89.2185 67.1081L88.0458 66.332L88.1675 64.9883L116.522 67.2174L116.4 68.5612L115.144 67.9102C116.19 66.1289 117.163 64.2383 118.059 62.2435C118.956 60.2591 119.791 57.9622 120.56 55.3529C121.334 52.7539 121.97 49.681 122.468 46.1497L122.634 44.9779H143.913Z" fill="#5E17EB"/>
<path d="M200.929 67.8268H174.81V45.9674H176.248L176.541 47.2852C171.402 48.3008 166.109 49.1029 160.66 49.681L159.499 49.806L151.262 25.8216L152.994 25.6289C158.149 25.056 163.21 24.2591 168.183 23.2383C173.161 22.2174 177.907 21.0404 182.426 19.707C186.94 18.3789 191.061 16.9518 194.784 15.4362C198.49 13.931 201.659 12.3997 204.303 10.8529L205.587 10.0977L218.48 32.2904L217.402 32.9779C212.877 35.8685 207.561 38.4102 201.443 40.6081L200.929 39.3477H202.367V67.8268H200.929ZM200.929 65.1289V66.4779H199.496V38.4154L200.42 38.082C206.328 35.9622 211.455 33.5143 215.798 30.7435L216.6 31.8633L215.344 32.5091L203.8 12.6445L205.061 11.9987L205.819 13.1445C203.053 14.7643 199.756 16.3529 195.923 17.9154C192.106 19.4674 187.891 20.9258 183.284 22.2799C178.682 23.6393 173.853 24.8372 168.791 25.8737C163.73 26.9154 158.575 27.7279 153.331 28.306L153.165 26.9674L154.526 26.5508L161.866 47.9258L160.5 48.3424L160.339 46.9987C165.694 46.431 170.899 45.6445 175.949 44.6445L177.68 44.306V66.4779H176.248V65.1289H200.929Z" fill="#5E17EB"/>
<path d="M295.53 41.7228L293.926 69.8426H292.571C286.829 69.8426 281.066 69.353 275.274 68.3791C269.477 67.4051 264.112 66.0145 259.183 64.2072L259.703 62.952L260.3 64.1759C251.5 67.952 240.321 69.8426 226.763 69.8426H225.408L223.727 40.3218L225.215 40.3009C231.686 40.202 236.963 39.7228 241.046 38.8582C245.006 38.0145 248.098 36.7489 250.322 35.0562C252.512 33.3895 254.122 31.2332 255.151 28.5874L256.495 29.0562V30.4051H227.167V4.4624H289.036V5.81136C289.036 12.8791 288.572 19.3634 287.642 25.2593C286.708 31.1968 285.175 36.5718 283.04 41.3791L281.718 40.8582L281.917 39.5197C283.665 39.7541 285.552 39.9312 287.576 40.0509C289.623 40.1707 291.802 40.2541 294.131 40.3009L295.608 40.327L295.53 41.7228ZM292.665 41.577L294.098 41.6499L294.07 42.9989C291.702 42.9468 289.479 42.8634 287.399 42.7437C285.297 42.6187 283.333 42.4364 281.514 42.1916L279.677 41.9468L280.396 40.3374C282.437 35.7384 283.909 30.5822 284.81 24.8634C285.717 19.0978 286.171 12.7489 286.171 5.81136H287.604V7.16032H228.6V5.81136H230.032V29.0562H228.6V27.7072H258.547L257.839 29.5197C256.628 32.6291 254.725 35.1759 252.125 37.1551C249.553 39.1134 246.074 40.5562 241.676 41.4884C237.406 42.3947 231.93 42.8999 225.259 42.9989L225.237 41.6499L226.669 41.577L228.196 68.4207L226.763 68.4884V67.1395C239.906 67.1395 250.687 65.3374 259.111 61.7228L259.664 61.4832L260.223 61.6916C264.98 63.4364 270.163 64.7801 275.777 65.7228C281.403 66.6707 287.001 67.1395 292.571 67.1395V68.4884L291.138 68.4207L292.665 41.577Z" fill="#5E17EB"/>
<path d="M337.024 68.7694L333.053 50.9933L334.452 50.7173L335.736 51.311C333.628 55.3371 330.779 58.9777 327.195 62.2277C323.605 65.4829 319.213 68.1965 314.019 70.3735L312.996 70.8006L294.51 48.5767L296.357 47.936C300.063 46.6496 303.034 45.0923 305.274 43.259C307.487 41.4412 309.096 39.4933 310.108 37.4152C311.115 35.3371 311.619 33.2954 311.619 31.285H313.051V32.634H300.688V8.92041H314.202V10.2694H312.769V3.67041H340.471V10.2694H339.038V8.92041H368.675V47.5506C368.675 52.3162 368.111 56.1496 366.983 59.0558C365.805 62.0975 363.924 64.4152 361.341 66.0194C358.846 67.5715 355.665 68.5975 351.81 69.1079C348.098 69.5975 343.64 69.8423 338.429 69.8423H337.262L337.024 68.7694ZM339.829 68.2121L338.429 68.4881V67.1392C343.507 67.1392 347.833 66.9048 351.412 66.436C354.841 65.9829 357.629 65.0923 359.764 63.7642C361.822 62.4881 363.326 60.6131 364.289 58.134C365.301 55.5246 365.81 51.9933 365.81 47.5506V10.2694H367.243V11.6183H337.605V5.01937H339.038V6.36833H314.202V5.01937H315.634V11.6183H302.121V10.2694H303.559V31.285H302.121V29.936H314.484V31.285C314.484 33.686 313.897 36.1079 312.714 38.5402C311.53 40.9725 309.677 43.2225 307.155 45.2902C304.654 47.3423 301.385 49.0715 297.347 50.4725L296.85 49.2017L297.978 48.3735L314.561 68.3058L313.433 69.1392L312.852 67.9048C317.742 65.8579 321.863 63.3215 325.204 60.285C328.55 57.2537 331.205 53.8631 333.169 50.1183L335 46.6235L339.829 68.2121ZM342.036 44.6704V31.285H343.474V32.634H338.96V31.285H340.393C340.393 34.1912 340.133 37.0767 339.608 39.936C339.082 42.8058 338.269 45.5767 337.163 48.2537L335.83 47.7642L335.774 46.4152C338.214 46.3267 339.984 46.0819 341.079 45.6808C341.461 45.5402 341.721 45.384 341.87 45.2017C341.981 45.0662 342.036 44.8892 342.036 44.6704ZM344.907 44.6704C344.907 45.509 344.647 46.2381 344.132 46.8579C343.662 47.4308 342.987 47.8787 342.119 48.1965C340.719 48.7069 338.645 49.009 335.885 49.1131L333.7 49.1912L334.491 47.2746C335.531 44.7694 336.294 42.1704 336.787 39.4777C337.279 36.7694 337.528 34.0402 337.528 31.285V29.936H344.907V44.6704Z" fill="#5E17EB"/>
<path d="M448.48 12.7018L440.669 15.1549L440.238 13.8372C439.795 12.4883 439.187 10.9622 438.412 9.25391C437.638 7.52474 436.819 5.85807 435.968 4.25391L435.199 2.80078L444.032 0.410156L444.597 1.30599C445.592 2.88411 446.51 4.55078 447.346 6.30078C448.175 8.03516 448.856 9.59245 449.376 10.9674L449.868 12.2695L448.48 12.7018ZM447.573 10.1445L448.026 11.4206L446.676 11.8789C446.179 10.5664 445.531 9.07682 444.735 7.41016C443.938 5.7487 443.07 4.17578 442.13 2.6862L443.363 1.99349L443.761 3.29036L437.644 4.94661L437.251 3.64974L438.529 3.04557C439.408 4.70182 440.249 6.42057 441.051 8.19661C441.859 9.98828 442.5 11.6029 442.976 13.0404L441.604 13.4362L441.151 12.1602L447.573 10.1445ZM440.835 14.9362L433.003 17.3945L432.588 16.0456C432.145 14.6081 431.565 13.0872 430.845 11.4779C430.121 9.85807 429.286 8.20182 428.34 6.50911L427.516 5.04557L436.416 2.63411L436.974 3.56641C437.959 5.23307 438.872 6.9362 439.701 8.67578C440.531 10.3997 441.2 11.8997 441.72 13.1706L442.257 14.4883L440.835 14.9362ZM439.928 12.3737L440.382 13.6549L439.043 14.1393C438.545 12.9154 437.893 11.4622 437.09 9.77995C436.294 8.11328 435.42 6.48307 434.469 4.88411L435.719 4.22786L436.117 5.52474L430.005 7.18099L429.606 5.88411L430.873 5.25391C431.863 7.01432 432.732 8.73828 433.489 10.431C434.247 12.1341 434.867 13.7539 435.337 15.2904L433.965 15.6706L433.512 14.3893L439.928 12.3737ZM400.965 69.957L370.52 64.1341L370.896 62.7591C371.808 59.431 372.655 55.7747 373.435 51.8008C374.22 47.8164 374.917 43.7122 375.525 39.4883C376.134 35.2591 376.654 31.0768 377.085 26.9414C377.517 22.8112 377.849 18.8737 378.075 15.1237C378.302 11.3841 378.418 8.01432 378.418 5.01953V3.59766L409.56 5.10286V6.38411C409.56 9.42578 409.472 12.9622 409.295 16.9831C409.118 21.0091 408.836 25.2956 408.449 29.8424C408.067 34.3893 407.608 38.9987 407.071 43.6654C406.535 48.3424 405.893 52.8372 405.152 57.1549C404.405 61.4883 403.57 65.4206 402.641 68.957L402.314 70.2122L400.965 69.957ZM401.534 67.3112L401.252 68.6341L399.858 68.3112C400.765 64.8424 401.59 60.9831 402.32 56.7227C403.055 52.4518 403.692 48.0039 404.223 43.3737C404.754 38.7331 405.213 34.1497 405.594 29.6289C405.976 25.1133 406.253 20.8633 406.43 16.8737C406.607 12.8841 406.695 9.38932 406.695 6.38411H408.128L408.056 7.73307L379.779 6.36328L379.851 5.01953H381.284C381.284 8.06641 381.168 11.4883 380.941 15.2799C380.708 19.0612 380.377 23.0404 379.94 27.207C379.503 31.3737 378.983 35.5872 378.369 39.8529C377.755 44.1185 377.047 48.2643 376.256 52.2956C375.459 56.3268 374.596 60.0404 373.672 63.431L372.284 63.0924L372.572 61.7695L401.534 67.3112ZM447.622 64.4154L417.31 70.2122L416.978 68.957C416.054 65.4206 415.219 61.4883 414.472 57.1549C413.731 52.8372 413.09 48.3424 412.553 43.6654C412.016 38.9987 411.557 34.3893 411.17 29.8424C410.788 25.2956 410.506 21.0091 410.329 16.9831C410.152 12.9622 410.058 9.42578 410.058 6.38411V5.10286L429.009 4.20182L429.429 4.97786C430.619 7.16536 431.614 9.14974 432.416 10.931C433.224 12.7174 433.965 14.5924 434.64 16.5456L433.274 16.9622L432.831 15.681L441.388 13.056L441.51 14.7904C441.759 18.5195 442.102 22.4727 442.533 26.6549C442.965 30.8372 443.485 35.056 444.099 39.3112C444.707 43.556 445.404 47.6862 446.19 51.6966C446.97 55.6966 447.816 59.3841 448.729 62.7643L449.099 64.1341L447.622 64.4154ZM447.053 61.7695L447.34 63.0924L445.952 63.4258C445.023 59.9883 444.165 56.2435 443.369 52.1862C442.572 48.1341 441.87 43.9622 441.256 39.6706C440.642 35.3841 440.116 31.1341 439.685 26.9154C439.248 22.707 438.905 18.7227 438.645 14.9622L440.077 14.8789L440.52 16.1602L432.356 18.6654L431.913 17.3789C431.26 15.4987 430.552 13.7018 429.778 11.9883C429.003 10.2643 428.035 8.33724 426.879 6.20703L428.157 5.59245L428.229 6.94141L411.563 7.73307L411.491 6.38411H412.924C412.924 9.38932 413.012 12.8841 413.195 16.8737C413.372 20.8633 413.648 25.1133 414.03 29.6289C414.412 34.1497 414.871 38.7331 415.402 43.3737C415.933 48.0039 416.569 52.4518 417.304 56.7227C418.035 60.9831 418.853 64.8424 419.76 68.3112L418.372 68.6341L418.084 67.3112L447.053 61.7695Z" fill="#5E17EB"/>
<path d="M481.732 41.1966H450.795V3.73828H483.165V41.1966H481.732ZM481.732 38.4987V39.8477H480.299V5.09245H481.732V6.44141H452.227V5.09245H453.665V39.8477H452.227V38.4987H481.732ZM452.941 68.6758L450.518 41.2331H452.078C458.588 41.2331 464.004 41.1862 468.324 41.0924C472.611 40.9935 476.029 40.806 478.585 40.5247C481.057 40.2487 482.888 39.8945 484.072 39.457C485.04 39.0977 485.643 38.7018 485.886 38.2591C486.185 37.707 486.334 37.0143 486.334 36.181V3.73828H518.782V41.2904C518.782 46.556 517.98 50.957 516.37 54.4831C514.733 58.0924 512.21 60.9518 508.814 63.0664C505.501 65.1341 501.264 66.6497 496.114 67.6185C491.075 68.5664 485.079 69.1862 478.125 69.4779C471.228 69.7695 463.307 69.9102 454.368 69.9102H453.051L452.941 68.6758ZM455.801 68.4518L454.368 68.5612V67.2122C463.268 67.2122 471.139 67.0716 477.998 66.7852C484.802 66.4987 490.654 65.8945 495.55 64.9727C500.334 64.0716 504.228 62.6862 507.232 60.8164C510.153 58.9987 512.321 56.5352 513.737 53.4206C515.186 50.2331 515.916 46.1914 515.916 41.2904V5.09245H517.349V6.44141H487.767V5.09245H489.205V36.181C489.205 37.4518 488.945 38.556 488.431 39.4987C487.861 40.5404 486.755 41.3633 485.123 41.9674C483.707 42.4883 481.638 42.9049 478.916 43.2018C476.272 43.4987 472.766 43.6914 468.39 43.7904C464.048 43.8841 458.611 43.931 452.078 43.931V42.582L453.505 42.4727L455.801 68.4518Z" fill="#5E17EB"/>
<path d="M524.017 22.5977H595.666V49.832H524.017V22.5977ZM526.882 25.2956V47.1341H592.801V25.2956H526.882Z" fill="#5E17EB"/>
</g>
<defs>
<clipPath id="clip0_74_2">
<rect width="598" height="72" fill="white"/>
</clipPath>
</defs>
</svg>
